<?xml version="1.0" encoding="UTF-8" standalone="no"?>
<!-- Created with Inkscape (http://www.inkscape.org/) -->

<svg
   xmlns:dc="http://purl.org/dc/elements/1.1/"
   xmlns:cc="http://creativecommons.org/ns#"
   xmlns:rdf="http://www.w3.org/1999/02/22-rdf-syntax-ns#"
   xmlns:svg="http://www.w3.org/2000/svg"
   xmlns="http://www.w3.org/2000/svg"
   xmlns:sodipodi="http://sodipodi.sourceforge.net/DTD/sodipodi-0.dtd"
   xmlns:inkscape="http://www.inkscape.org/namespaces/inkscape"
   width="210mm"
   height="297mm"
   viewBox="0 0 744.09448819 1052.3622047"
   id="svg2"
   version="1.1"
   inkscape:version="0.91 r13725"
   sodipodi:docname="gollum-caves-logo.svg">
  <defs
     id="defs4" />
  <sodipodi:namedview
     id="base"
     pagecolor="#ffffff"
     bordercolor="#666666"
     borderopacity="1.0"
     inkscape:pageopacity="0.0"
     inkscape:pageshadow="2"
     inkscape:zoom="1.6297629"
     inkscape:cx="420.41226"
     inkscape:cy="606.08368"
     inkscape:document-units="px"
     inkscape:current-layer="layer1"
     showgrid="false"
     inkscape:window-width="1920"
     inkscape:window-height="1053"
     inkscape:window-x="0"
     inkscape:window-y="27"
     inkscape:window-maximized="1" />
  <metadata
     id="metadata7">
    <rdf:RDF>
      <cc:Work
         rdf:about="">
        <dc:format>image/svg+xml</dc:format>
        <dc:type
           rdf:resource="http://purl.org/dc/dcmitype/StillImage" />
        <dc:title></dc:title>
      </cc:Work>
    </rdf:RDF>
  </metadata>
  <g
     inkscape:label="Ebene 1"
     inkscape:groupmode="layer"
     id="layer1">
    <path
       id="path4154"
       style="fill:#666666;fill-rule:evenodd;stroke:none;stroke-width:1;stroke-linecap:butt;stroke-linejoin:miter;stroke-opacity:1;stroke-miterlimit:4;stroke-dasharray:none"
       d="m 427.79187,331.55626 c -1.71082,-2.4321 -2.10787,-5.60349 -1.141,-8.30402 1.63853,-3.15671 6.49014,-3.20804 9.77769,-2.23872 3.57573,0.32392 4.15765,3.54468 5.274,5.86147 2.22266,2.28452 1.00518,5.6736 -1.56538,7.32813 -2.73994,2.04761 -6.58488,0.78993 -9.49258,-0.26053 -1.20082,-0.51937 -2.2844,-1.31771 -2.85273,-2.38633 z m -58.55699,2.31147 c -1.4467,-0.8078 -0.96314,-2.51725 -1.28706,-3.77167 -0.0862,-2.05807 0.0447,-4.21384 1.00723,-6.1223 1.07825,-1.97009 3.24121,-3.30627 5.58891,-3.98314 3.31045,-1.25521 7.53638,-0.78036 10.21336,1.3636 1.39129,1.09611 2.2105,2.62117 2.41815,4.22558 0.64044,1.85513 -0.13163,3.76053 -1.06023,5.43 -0.91944,1.41134 -2.33736,2.60299 -4.14727,3.11327 -1.85091,0.47209 -3.54292,2.09247 -5.5188,1.64059 -2.45556,-0.44738 -4.99648,-0.83301 -7.21429,-1.89593 z m 55.32298,10.59712 c -3.30253,-6.54829 -9.17092,-11.80439 -11.77677,-18.50826 -1.85981,-7.62302 4.39313,-14.28748 11.64315,-16.15782 5.33564,-0.7312 11.08243,-1.16303 16.27102,0.42863 7.86098,3.55718 10.46024,12.15508 13.01451,19.4685 1.3129,9.93371 -9.04803,18.30494 -18.79064,18.28329 -3.6586,-0.41967 -6.80989,-2.58938 -10.36127,-3.51434 z m -58.23932,-1.44566 c -5.52577,-1.67852 -7.00552,-8.05683 -8.43339,-12.9138 -0.61536,-6.14646 -2.14398,-13.50936 2.71446,-18.42248 4.76616,-3.99263 11.55221,-4.93933 17.61463,-4.73434 6.91991,0.8865 15.28214,3.38872 17.87811,10.66319 1.63063,6.00295 5.19958,12.16687 3.75952,18.50883 -2.04458,4.60453 -3.51787,11.05658 -9.1049,12.47236 -6.85017,1.68423 -14.96064,2.07253 -20.5935,-2.92761 -1.47113,-0.59814 -2.22315,-2.34188 -3.83493,-2.64615 z M 202.41602,542.94523 c -9.59287,-19.37176 -23.90876,-60.05894 -26.52785,-81.76707 -2.61908,-21.70811 -2.48944,-31.6547 -1.94027,-47.30895 0.54918,-15.65425 4.61781,-36.30326 12.05166,-55.62172 7.43385,-19.31846 23.70947,-45.97175 41.2763,-65.29181 17.56684,-19.32006 54.43112,-46.3495 74.37951,-59.65113 37.51962,-21.77285 79.76696,-26.32591 122.19803,-22.15482 42.43108,4.17109 79.52803,13.16263 108.97288,42.16051 35.15536,33.31335 61.20745,63.96326 73.73655,104.91837 7.14671,23.7076 7.05124,54.34646 9.45487,73.60786 2.40364,19.26141 -0.72798,38.30576 -0.0761,46.23953 0.65188,7.93377 -7.62351,34.43339 -14.16808,47.93011 -6.54456,13.49673 -14.96354,26.54829 -25.41393,35.69992 -10.4504,9.15163 -23.50589,12.46453 -34.85238,16.02291 -11.34649,3.55836 -294.83729,5.93041 -308.32345,-0.52722 -12.6333,-3.74441 -21.17487,-14.88472 -30.76773,-34.25649 z m 107.68931,11.38471 c 8.9277,-0.26428 17.81685,-2.22296 26.40295,-4.65934 6.27874,-1.24957 15.95658,-0.83914 9.8364,-8.80099 -3.56925,-9.32189 -14.52684,-11.13276 -19.67279,-19.15508 -6.19571,-6.61376 -11.7312,-13.5053 -15.53115,-21.74362 -2.60906,-2.07004 -7.32878,-13.02591 -1.03541,-10.8718 7.13784,5.83005 16.56375,6.7316 21.74361,17.08426 5.41698,6.55033 9.33402,14.62234 16.56656,19.6728 5.41596,4.14998 10.27301,9.17279 11.90722,15.53115 1.66331,3.64696 5.00568,7.3199 9.83639,10.3541 5.93678,1.98304 11.54619,3.97248 18.49482,4.14164 8.36651,0.10569 11.21099,2.09411 19.82785,1.03541 5.83884,0.031 13.76409,-5.93987 17.07177,-9.8364 7.80345,-9.66144 13.23111,-20.75404 20.7082,-30.54459 3.73371,-7.95785 7.81861,-15.99207 11.38952,-23.81444 2.51557,-8.08891 12.99497,-11.16607 19.67279,-9.31869 2.40052,4.94034 0.54589,12.51473 -0.51771,18.11968 -3.70546,8.44274 -8.35288,16.7039 -15.53115,22.77902 -4.80053,5.91421 -9.63098,12.73513 -14.49574,18.63738 -2.20667,2.92986 -6.41784,9.97621 -2.07082,14.49574 4.97706,6.0016 12.92114,4.48685 20.1905,4.65935 7.25618,-1.0471 14.26175,-2.54347 21.89866,-2.58853 5.63943,0.13613 21.83872,3.29346 25.7302,1.03542 5.17669,-2.90851 -2.32463,-15.36515 -10.2887,-17.47096 -7.72959,-3.42698 -17.03639,-5.08862 -24.83727,-4.15192 -9.17843,4.65775 -9.00536,-2.42182 -2.66652,-6.8509 7.49641,-3.41674 12.16627,-10.52676 17.08427,-16.04886 5.69516,-3.49946 10.10288,-8.61464 14.55237,-14.99727 2.77196,-3.31247 3.89703,-9.66989 5.63813,-15.02962 -0.21207,-6.47438 2.15866,-13.8948 -1.03541,-19.67279 -4.90062,-10.37702 -15.8457,-16.01413 -26.92067,-17.08427 -8.07228,-1.1509 -16.72306,-0.55464 -24.33213,2.07082 -6.98862,7.48578 -15.92436,12.45558 -21.74362,20.7082 -3.85735,6.92061 -10.05108,12.87518 -12.42492,20.1905 -2.91784,3.73817 -1.55978,-7.77655 -0.5177,-9.8364 1.63714,-9.84237 2.72953,-19.84044 5.17705,-29.50919 1.79474,-6.34703 1.79757,-13.78977 4.14164,-19.67279 1.87998,-5.11134 1.91717,-11.65997 3.62393,-16.04885 2.63417,-6.78168 11.64926,-1.84916 17.61447,-3.10623 9.25856,0.62349 18.46347,1.07222 27.42587,3.62393 9.09061,0.42509 17.90117,2.82967 26.92067,3.62394 7.00234,2.74265 12.88668,10.71494 13.62333,18.41663 1.4827,4.17421 2.98684,12.46687 2.42552,19.01318 0.52071,7.97748 -3.02185,15.02989 -2.07082,23.14168 -1.56103,4.8071 1.18861,12.12461 -2.58852,15.53115 -1.9991,3.26566 -3.68081,7.0143 -5.69476,10.8718 -3.49966,5.61452 1.85192,10.45204 7.66602,13.14601 5.28713,1.93155 10.11478,2.87138 15.63071,-0.20338 4.90364,-2.88707 15.66453,-11.69916 8.80098,-19.67279 -1.13312,-6.36742 -10.69868,-4.71925 -8.28328,-11.90722 2.88185,-6.46376 1.9287,-13.68036 3.10623,-20.48811 -0.58421,-9.37582 -0.57413,-18.80882 -1.03541,-28.17616 0.85887,-7.49973 -0.48065,-13.07115 -2.09544,-21.77758 -1.78359,-7.08281 -8.01102,-13.5452 -14.98882,-14.97948 -8.12311,-1.07299 -17.9892,-6.09491 -24.62678,-6.11606 -7.85478,-2.17897 -14.06748,-4.70838 -22.63943,-4.23804 -12.2271,-0.40105 -24.05584,-2.60902 -36.41891,-2.02982 -6.65482,-0.66503 -13.54696,-2.11442 -18.82048,-4.70035 -6.52571,-0.9462 -13.60675,-7.43397 -10.35179,-14.64317 4.5594,-2.64346 12.69659,-5.30546 18.11737,-9.17126 3.62419,-1.83734 8.65144,-3.75739 13.97803,-4.65935 7.72916,-1.19437 12.26296,-10.77948 17.60197,-16.04885 5.16617,-3.23128 6.15751,-9.31018 4.65935,-15.53115 -3.36113,-6.16851 -4.65567,-13.71269 -8.2361,-17.92202 -6.89232,-9.91378 -19.94375,-13.32623 -31.10949,-15.72881 -14.98165,-2.48312 -30.39396,-5.37358 -45.55804,-2.07082 -11.96153,0.57411 -20.68553,9.25461 -27.43837,18.11967 -6.89935,7.52885 -8.34383,17.74345 -10.87181,26.92067 -1.71756,5.15823 1.33822,9.58742 3.62394,13.97803 4.42531,5.69179 13.35814,5.42991 17.08427,11.90722 5.52361,3.75535 25.9445,6.3985 22.26132,12.94263 -2.89577,5.24924 -23.34843,11.44274 -29.58672,10.8718 -13.15351,0.66682 -26.89136,-2.00526 -39.26806,3.10623 -9.38872,7.74676 -20.72157,13.60562 -27.95607,23.81444 -6.71238,7.0853 -10.62048,16.63925 -15.01345,24.33213 -0.81973,9.86711 -10.56654,18.2385 -9.8364,28.47378 1.73459,5.41341 2.23005,13.13094 2.07082,17.38188 -0.94476,6.49599 -9.43032,9.81428 -15.01344,13.16271 -6.16649,2.51822 -3.75162,12.12319 0,16.56657 4.14013,6.28041 11.17394,9.74224 18.63738,8.28328 6.5456,0.13786 9.9163,-6.44331 12.42492,-11.38952 0.20223,-6.22554 2.63529,-12.76423 -1.03541,-17.60197 -5.11312,-5.82546 0.66508,-13.60032 -0.51771,-20.7082 1.51,-7.72921 5.56956,-22.49991 11.38951,-28.99148 3.33781,-6.52347 12.92485,-20.2729 18.63739,-24.84984 4.84362,-3.99091 8.19399,-5.97908 15.01345,-7.76558 9.59181,0.3348 18.91601,-3.78705 28.47378,-1.55311 5.32957,0.42313 11.74269,-1.76963 15.01344,3.62393 4.33187,5.66932 0.65619,26.41168 0.51771,33.22315 -0.19645,7.59494 -4.07671,15.05985 -5.69476,22.1713 -0.17132,6.75605 -0.41485,14.99466 -3.10623,19.67279 -5.65044,4.25411 -13.40217,-0.96557 -18.797,-3.71302 -9.56434,-1.89599 -16.92597,-10.36871 -27.27875,-10.26502 -6.29147,-2.64496 -13.80154,-2.50158 -20.1905,-1.55311 -6.68554,5.26682 -4.17926,15.18077 -4.65934,23.29672 0.9843,9.82338 5.1863,17.952 10.3541,25.88526 0.14468,6.05992 8.11606,8.93495 9.31869,14.49574 4.48036,7.63622 -5.71703,9.75281 -10.3541,13.46033 -6.38219,0.50332 -12.78024,1.3812 -18.63738,4.14164 -3.68623,3.53448 -15.28819,7.64166 -4.12509,11.92663 1.70713,-1.09675 3.65446,3.16336 9.561,2.82797 12.6043,2.05428 15.38498,-13.71619 24.0733,-13.20149 z" />
  </g>
</svg>
